<svg clip-rule="evenodd" fill-rule="evenodd" stroke-linejoin="round" stroke-miterlimit="2" viewBox="0 0 25 25" xmlns="http://www.w3.org/2000/svg"><path d="m21.065 22.601c-2.238 2.107-5.252 3.399-8.565 3.399-6.899 0-12.5-5.601-12.5-12.5s5.601-12.5 12.5-12.5c3.313 0 6.327 1.292 8.565 3.399h-4.204v2.478c-.595-1.013-1.393-1.762-2.395-2.247-1.003-.484-2.12-.726-3.353-.726h-.033c-1.014 0-1.96.176-2.841.528s-1.652.876-2.313 1.569c-.66.694-1.184 1.553-1.569 2.577s-.578 2.208-.578 3.551v2.742c0 1.365.193 2.56.578 3.584s.909 1.878 1.569 2.56c.661.683 1.432 1.201 2.313 1.553s1.827.528 2.841.528h.033c1.233 0 2.35-.258 3.353-.776 1.002-.517 1.8-1.316 2.395-2.395v2.676zm.156-18.053c2.331 2.271 3.779 5.444 3.779 8.952s-1.448 6.681-3.779 8.952zm-8.787 14.981h-.033c-1.211 0-2.224-.413-3.039-1.239s-1.223-2.109-1.223-3.849v-1.816c0-1.762.408-3.056 1.223-3.882s1.828-1.239 3.039-1.239h.033c.551 0 1.096.11 1.635.331.54.22 1.013.556 1.421 1.007.407.452.737 1.008.991 1.668.253.661.38 1.432.38 2.313v1.354c0 .903-.127 1.685-.38 2.346-.254.66-.584 1.216-.991 1.668-.408.451-.881.787-1.421 1.007-.539.221-1.084.331-1.635.331z" fill="#000" transform="translate(0 -1)"/></svg>
