<svg xmlns="http://www.w3.org/2000/svg" width="370" height="300" viewBox="0 0 370 300">
  <style>
    text {
    font-family: "IBM Plex Sans KR", sans-serif;
    font-size: 36px;
    font-weight: 600;
    fill: #00C2A0;
    }
  </style>

  <g transform="translate(75, 0)">
    <line x1="107.5" y1="20.0" x2="15.3" y2="70.8" stroke="#00C2A0" stroke-width="7"/>
    <line x1="107.5" y1="20.0" x2="205.5" y2="70.8" stroke="#00C2A0" stroke-width="7"/>
    <line x1="15.3" y1="70.8" x2="15.3" y2="178.5" stroke="#00C2A0" stroke-width="7"/>
    <line x1="205.5" y1="70.8" x2="205.5" y2="178.5" stroke="#00C2A0" stroke-width="7"/>
    <line x1="15.3" y1="178.5" x2="107.5" y2="232.0" stroke="#00C2A0" stroke-width="7"/>
    <line x1="205.5" y1="178.5" x2="107.5" y2="232.0" stroke="#00C2A0" stroke-width="7"/>
    <line x1="174.3" y1="99.5" x2="107.5" y2="20.0" stroke="#00C2A0" stroke-width="7"/>
    <line x1="174.3" y1="99.5" x2="205.5" y2="70.8" stroke="#00C2A0" stroke-width="7"/>
    <line x1="174.3" y1="99.5" x2="205.5" y2="178.5" stroke="#00C2A0" stroke-width="7"/>
    <line x1="174.3" y1="99.5" x2="142.8" y2="186.0" stroke="#00C2A0" stroke-width="7"/>
    <line x1="142.8" y1="186.0" x2="205.5" y2="178.5" stroke="#00C2A0" stroke-width="7"/>
    <line x1="142.8" y1="186.0" x2="107.5" y2="232.0" stroke="#00C2A0" stroke-width="7"/>
    <line x1="39.5" y1="130.5" x2="107.5" y2="20.0" stroke="#00C2A0" stroke-width="7"/>
    <line x1="39.5" y1="130.5" x2="15.3" y2="70.8" stroke="#00C2A0" stroke-width="7"/>
    <line x1="39.5" y1="130.5" x2="15.3" y2="178.5" stroke="#00C2A0" stroke-width="7"/>
    <line x1="39.5" y1="130.5" x2="107.5" y2="232.0" stroke="#00C2A0" stroke-width="7"/>
    <line x1="39.5" y1="130.5" x2="142.8" y2="186.0" stroke="#00C2A0" stroke-width="7"/>
    <line x1="39.5" y1="130.5" x2="174.3" y2="99.5" stroke="#00C2A0" stroke-width="7"/>
    <circle cx="107.5" cy="20.0" r="7" fill="#00C2A0"/>
    <circle cx="15.3" cy="70.8" r="7" fill="#00C2A0"/>
    <circle cx="15.3" cy="178.5" r="7" fill="#00C2A0"/>
    <circle cx="107.5" cy="232.0" r="7" fill="#00C2A0"/>
    <circle cx="205.5" cy="178.5" r="7" fill="#00C2A0"/>
    <circle cx="205.5" cy="70.8" r="7" fill="#00C2A0"/>
    <circle cx="174.3" cy="99.5" r="17" fill="#00C2A0"/>
    <circle cx="39.5" cy="130.5" r="17" fill="#00C2A0"/>
    <circle cx="142.8" cy="186.0" r="17" fill="#00C2A0"/>
  </g>

  <text x="35" y="285" textLength="300" lengthAdjust="spacing">
    ACTIONBASE
  </text>
</svg>
