<svg clip-rule="evenodd" fill-rule="evenodd" stroke-linejoin="round" stroke-miterlimit="2" viewBox="0 0 168 40" xmlns="http://www.w3.org/2000/svg"><g fill="#23262d"><g fill-rule="nonzero" transform="matrix(1.888683 0 0 1.888683 -48.407348 18.08733)"><path d="m49.23-2.043h1.584v6.612h-1.584v-.972c-.216.392-.506.682-.87.87s-.77.282-1.218.282h-.012c-.368 0-.712-.064-1.032-.192s-.6-.316-.84-.564-.43-.558-.57-.93-.21-.806-.21-1.302v-.996c0-.488.07-.918.21-1.29s.33-.684.57-.936.52-.442.84-.57.664-.192 1.032-.192h.012c.448 0 .854.088 1.218.264s.654.448.87.816zm-1.608 5.496c.2 0 .398-.04.594-.12s.368-.202.516-.366.268-.366.36-.606.138-.524.138-.852v-.492c0-.32-.046-.6-.138-.84s-.212-.442-.36-.606-.32-.286-.516-.366-.394-.12-.594-.12h-.012c-.44 0-.808.15-1.104.45s-.444.77-.444 1.41v.66c0 .632.148 1.098.444 1.398s.664.45 1.104.45z"/><path d="m55.338 4.761c-.416 0-.812-.068-1.188-.204s-.708-.338-.996-.606-.516-.6-.684-.996-.252-.85-.252-1.362v-.648c0-.512.084-.966.252-1.362s.396-.73.684-1.002.62-.476.996-.612.772-.204 1.188-.204h.012c.432 0 .83.068 1.194.204s.682.326.954.57.484.536.636.876.236.71.252 1.11h-1.488c-.008-.224-.054-.424-.138-.6s-.196-.326-.336-.45-.3-.22-.48-.288-.374-.102-.582-.102h-.012c-.2 0-.392.036-.576.108s-.348.178-.492.318-.26.316-.348.528-.132.454-.132.726v1.008c0 .272.044.512.132.72s.204.384.348.528.308.252.492.324.376.108.576.108h.012c.208 0 .402-.034.582-.102s.34-.164.48-.288.252-.274.336-.45.13-.372.138-.588h1.488c-.016.4-.1.768-.252 1.104s-.364.624-.636.864-.59.428-.954.564-.762.204-1.194.204z"/><path d="m65.346 2.289c0 .4-.07.752-.21 1.056s-.33.562-.57.774-.518.372-.834.48-.646.162-.99.162h-.024c-.352 0-.682-.054-.99-.162s-.576-.268-.804-.48-.41-.476-.546-.792-.204-.682-.204-1.098v-2.76h-1.068v-1.236h1.068v-1.896h1.572v1.896h2.784v1.236h-2.784v2.82c0 .4.11.704.33.912s.47.312.75.312h.012c.28 0 .528-.104.744-.312s.324-.512.324-.912z"/><path d="m67.002-2.979c-.264 0-.49-.092-.678-.276s-.282-.412-.282-.684.094-.5.282-.684.414-.276.678-.276c.256 0 .478.092.666.276s.282.412.282.684-.094.5-.282.684-.41.276-.666.276zm-.792 7.548v-6.612h1.572v6.612z"/><path d="m72.27 4.761c-.416 0-.814-.068-1.194-.204s-.714-.336-1.002-.6-.516-.592-.684-.984-.252-.844-.252-1.356v-.684c0-.52.084-.978.252-1.374s.396-.726.684-.99.622-.464 1.002-.6.778-.204 1.194-.204h.012c.416 0 .812.068 1.188.204s.708.336.996.6.516.594.684.99c.168.396.252.854.252 1.374v.684c0 .512-.084.964-.252 1.356s-.396.72-.684.984-.62.464-.996.6-.772.204-1.188.204zm.012-1.308c.2 0 .392-.036.576-.108s.348-.18.492-.324.258-.32.342-.528.126-.448.126-.72v-1.008c0-.272-.042-.514-.126-.726s-.198-.388-.342-.528-.308-.246-.492-.318-.376-.108-.576-.108h-.012c-.2 0-.392.036-.576.108s-.348.178-.492.318-.26.316-.348.528-.132.454-.132.726v1.008c0 .272.044.512.132.72s.204.384.348.528.308.252.492.324.376.108.576.108z"/><path d="m80.454-2.235c.344 0 .664.058.96.174s.556.286.78.51.4.502.528.834.192.718.192 1.158v4.128h-1.572v-3.936c0-.536-.132-.93-.396-1.182s-.596-.378-.996-.378h-.012c-.2 0-.392.036-.576.108s-.348.184-.492.336-.26.346-.348.582-.132.518-.132.846v3.624h-1.584v-6.612h1.584v.876c.232-.376.526-.648.882-.816s.746-.252 1.17-.252z"/><path d="m88.242-2.223c.368 0 .712.064 1.032.192s.6.318.84.57.43.564.57.936.21.802.21 1.29v.996c0 .496-.07.93-.21 1.302s-.33.682-.57.93-.52.436-.84.564-.664.192-1.032.192h-.012c-.448 0-.852-.086-1.212-.258s-.652-.446-.876-.822v.9h-1.584v-9.084h1.584v3.456c.224-.392.516-.684.876-.876s.764-.288 1.212-.288zm1.068 3.168c0-.64-.148-1.11-.444-1.41s-.664-.45-1.104-.45h-.012c-.208 0-.408.04-.6.12s-.362.202-.51.366-.268.366-.36.606-.138.52-.138.84v.492c0 .328.046.612.138.852s.212.442.36.606.318.286.51.366.392.12.6.12h.012c.44 0 .808-.15 1.104-.45s.444-.766.444-1.398z"/><path d="m96.75-2.043h1.584v6.612h-1.584v-.972c-.216.392-.506.682-.87.87s-.77.282-1.218.282h-.012c-.368 0-.712-.064-1.032-.192s-.6-.316-.84-.564-.43-.558-.57-.93-.21-.806-.21-1.302v-.996c0-.488.07-.918.21-1.29s.33-.684.57-.936.52-.442.84-.57.664-.192 1.032-.192h.012c.448 0 .854.088 1.218.264s.654.448.87.816zm-1.608 5.496c.2 0 .398-.04.594-.12s.368-.202.516-.366.268-.366.36-.606.138-.524.138-.852v-.492c0-.32-.046-.6-.138-.84s-.212-.442-.36-.606-.32-.286-.516-.366-.394-.12-.594-.12h-.012c-.44 0-.808.15-1.104.45s-.444.77-.444 1.41v.66c0 .632.148 1.098.444 1.398s.664.45 1.104.45z"/><path d="m102.51 4.761c-.424 0-.814-.056-1.17-.168s-.66-.272-.912-.48-.448-.456-.588-.744-.21-.608-.21-.96h1.44c.016.136.062.272.138.408s.18.258.312.366.288.194.468.258.386.096.618.096h.012c.36 0 .638-.07.834-.21s.294-.314.294-.522c0-.184-.064-.338-.192-.462s-.372-.226-.732-.306l-.96-.24c-.264-.064-.52-.146-.768-.246s-.466-.226-.654-.378-.34-.334-.456-.546-.174-.462-.174-.75c0-.312.062-.598.186-.858s.3-.484.528-.672.506-.332.834-.432.696-.15 1.104-.15h.012c.408 0 .778.056 1.11.168s.618.272.858.48.426.456.558.744.198.608.198.96h-1.428c-.016-.144-.06-.282-.132-.414s-.168-.252-.288-.36-.26-.194-.42-.258-.34-.096-.54-.096h-.012c-.336 0-.594.074-.774.222s-.27.322-.27.522c0 .176.074.324.222.444s.386.22.714.3l.972.24c.288.064.558.148.81.252s.468.234.648.39.322.344.426.564.156.482.156.786c0 .32-.068.606-.204.858s-.324.466-.564.642-.53.312-.87.408-.714.144-1.122.144z"/><path d="m109.482-2.235c.408 0 .794.066 1.158.198s.684.33.96.594.496.594.66.99c.164.396.246.858.246 1.386v.732h-4.668v.12c0 .288.044.54.132.756s.21.396.366.54.336.254.54.33.422.114.654.114h.012c.416 0 .76-.1 1.032-.3s.428-.48.468-.84h1.464c-.032.304-.12.6-.264.888s-.342.542-.594.762-.556.396-.912.528-.758.198-1.206.198h-.024c-.448 0-.866-.068-1.254-.204s-.73-.338-1.026-.606-.528-.6-.696-.996-.252-.85-.252-1.362v-.648c0-.512.086-.966.258-1.362s.404-.73.696-1.002.632-.476 1.02-.612.794-.204 1.218-.204zm-.024 1.248c-.208 0-.406.036-.594.108s-.358.18-.51.324-.274.32-.366.528-.142.448-.15.72h3.132c0-.288-.04-.538-.12-.75s-.188-.386-.324-.522-.294-.238-.474-.306-.374-.102-.582-.102z"/></g><path d="m5304.009 6694.985c243-28.999 445.001-77.999 640.001-155.999 261.001-105 434.001-234 646.001-480.999 62-72 116-118 247.001-206.999 51-35 108-77 126-94 148-139 210-421.999 142-651.999-41-137.999-66-175.999-215-324.999-75-74-160.001-165.999-190.001-202.999-110-138-212-191-516.001-271-249-64.999-349-99.999-467-163.999-249.001-135-431.001-308.999-579.001-554.999-67-111-92-192.999-93-296.999 0-109 33-189 98-235 129-92.999 255-159.999 491.001-261.999 618.001-266.999 958.001-549.998 1162.002-967.997 52.337-107.376 232.316-487.867 40-709.999-26-30-26-30-18 15 2.633 16.459 7.838 161.674 3.375 240.25-1.125 19.809-14.243 35.242-16.375 37.75-1.917 2.092-26.445 28.849-28.78 20.73-1.35-4.693-6.221-21.633-6.221-60.73-1-130-61-319-112-346.999-24-14-32-13-82 2-4.766 1.537-55.503 17.903-55.855 28.262-.378 11.146 17.796 35.929 19.855 38.737 33 47 52 111 53 185 1.086 70.578-22.279 134.84-32 135-7.451.123-18.973-62.423-20-68-18.044-98.768-82.324-210.727-108.906-220.548-21.407-7.909-100.27 87.37-124.094 138.548-14 30-42 115-62 188.999-40 147-67.001 205-130.001 279-116 135.999-266 208.999-565.001 272.999-146 31-392 37-608.001 14-221-24-306-15-430 44-56.786 27.159-74.086 42.845-83 48l15 30c75 107.999 189 409.999 199 527.998 5 70 5 70-14 46-11-13-45-71.999-55-97.999-45-119-127-262-268.001-462.999-79.454-112.909-351.372-395.77-383.916-404.648-15.213-4.15-21.753 3.519-22.973 4.95-10.284 12.058-33.481 57.543-36.111 62.699-25 48.999-25 48.999 39 119.999 227 255 400 522.999 727.001 1121.997 262 478.999 367 632.999 569.001 835.998 223 223 457.001 363 755.001 453.999 62 18 172 45 246.001 60 255 50 260 53 398 188 27.416 26.713 96.549 135.984 91.28 170.281-5.836 37.986-40.403 88.31-61.28 95.718-60 21-117 14-172-23-233-154-493.001-198.999-759.001-132-231.046 59.726-215.295 112.096-197.999 118.551 20.558 7.673 109.773-22.437 118.999-25.551 69-23 147-41 211-49 303-35 638.001 96 731.001 287 17.399 34.796 27.5 118.497 24.318 168.519-.187 2.935 1.165 34.952-33.318 70.48-19 20-74 56-122 81-66 34-97 57-130 97-143.001 175.999-197.001 211.999-440.001 292.999-256 85-266.001 91-323.001 209.999-52 108-105 166-194 211-52 26-66 29-157 28-79 0-112-5-158-23-80.001-31-165.001-112-211.001-201-29-54-46-75-75-90-21-10-127-36.999-237-59.999-109.001-23-236.001-54-281.001-69-275-94-508.001-317.999-629.001-604.999-84-196.999-123-404.999-131-696.998-7-247.999 7-405.999 59-653.998 126-604.999 147-809.998 114-1130.998-20-203.999-21-419.999-1-543.998 31-191 120-401.999 244.001-579.999 194-278.999 384-465.999 529-519.998 31.001-12 119.001-33 195.001-46 219-39 336-91 424.001-189 24.433-26.76 89.071-130.876 92.685-152.234.813-4.804-7.134-9.134-51.685 32.234-69.001 60-139.001 93-207.001 97-72 4-75-13-9-47 107-55 152-97.999 207.001-195.999 39-71 39-92-1-123-43.037-31.879-112.565-55.358-114.001-56-2.973 27.2 2.123 141.202-142 239-41 28-141 52.999-182 45-41-9-38-21 9-29 57.212-9.393 183.87-117.098 213.165-213.089 10.936-35.836 12.206-50.097-25.181-51.036-303.371-7.619-634.742 99.622-758.985 154.125-455.001 200.999-948.002 619.998-1280.002 1084.997-128.001 180-186.001 275.999-273.001 454.999-20.547 42.358-16.529 44.046-223.453 544.399-3.783 9.148-6.145 7.558-10.547 16.6-1.734-34.853-2.871-34.749.991-69.368 2.194-19.671 19.299-173.023 37.009-244.632 57-221.999 179-509.998 275-646.998 16-23-2-13-69 39-917.435 711.17-1475.182 1332.435-1699.003 1639.996-62.483 85.436-226.566 348.173-226.147 373.616.027 1.616 4.901 10.765 12.046 15.463 21.234 13.96 148.034 52 161.101 55.92 374.001 111.999 628.001 226.999 877.002 398.999 351 241.999 595.001 497.999 956.001 1003.997 234.001 327.999 386.001 526.999 515.001 674.999 105 118.999 128 149.999 143.001 199.999 30 94 71 166 124 217 97 92.999 179 128.999 346 150.999 95 12 136.001 24 252.001 71 511.001 208 912.001 277.999 1328.002 228.999zm-1689.003-378.999c-113-28-202-101.999-257-212.999-44-89-51-211-18-313.999 25-76 82-163 144-216 28-26 46-33 77-33 34 0 41 4 50 28 17 44 4 96-52 206-43 87-52 111.999-52 157.999 0 83 45 149 125 182 54 23 102 20 208.001-14 90-28 178-38 214-24 12 4 16 20 16 54 0 45-3 51-42 85-115 98.999-270.001 135.999-413.001 100.999zm3316.006-898.997c-11-19-66-76-121-127-121.001-111-142.001-147-148.001-253.999-8-128 29-173 139.001-169 67 2 105 19 147 68 74 84 107 185.999 107 334.999 0 142-12 173-66 178-32 3-39-1-58-31zm-326.001 382.999c-74-13-129-35-191-76-63-42-76-62-72-107 5-52 44-56 164-15 96 32 104 33 259 33 160.001 0 160.001 0 163.001 39 4 47-20 76-86 104-56 24-168.001 34-237.001 22zm-1337.002 192.999c77.267-36.6 165.787-185.731 64.4-315.831-100.705-129.224-314.39-78.607-351.676 84.969-35.37 155.169 130.849 302.123 287.276 230.862zm-89.648-46.313c-15.001-10.001-18.335-20.835-18.335-57.503 0-55.837 20.001-79.171 67.504-79.171 42.503 0 55.837 6.667 70.004 34.168 31.669 60.003.834 115.84-64.17 115.84-20.001 0-45.003-5.834-55.003-13.334z" transform="matrix(.003707 0 0 -.00384 .985888 34.380553)"/></g></svg>